<svg width="357" height="336" viewBox="0 0 357 336" fill="none" xmlns="http://www.w3.org/2000/svg">
<g clip-path="url(#clip0_172_7800)">
<path d="M191.603 13.4842C173.904 13.3166 66.6914 11.6573 63.5403 41.5339C60.5233 70.1534 102.066 59.6693 102.468 72.3742C102.895 85.7161 94.9757 89.5711 72.8594 88.7247C63.2805 88.3559 33.0351 91.75 32.549 110.841C32.063 129.823 65.8365 127.426 64.1688 143.181C63.1967 161.082 37.5522 164.979 27.4453 169.714C16.4668 175.455 -3.73868 184.925 0.904135 205.248C7.01355 228.814 45.8154 224.573 60.4311 227.481C70.1944 229.065 101.228 231.806 96.811 252.69C94.4896 265.244 69.0128 265.973 73.8819 282.072C78.8096 297.123 123.235 300.099 132.236 300.593C169.596 302.613 251.625 305.915 288.164 290.503C301.598 284.896 313.456 278.142 312.082 257.995C311.411 240.002 301.715 237.37 318.057 223.467C328.39 214.517 348.168 215.237 346.995 189.124C346.367 175.036 310.322 169.186 311.127 154.436C312.384 131.264 356.624 150.942 356.784 109.961C356.884 84.3836 276.398 98.6891 277.219 73.3883C276.138 63.1221 293.846 58.7643 293.092 47.3919C293.511 29.1893 272.66 15.7218 191.612 13.4842H191.603Z" fill="#00B796"/>
<path d="M121.374 199.038C121.29 199.088 121.181 199.122 121.055 199.122H59.4334C59.1569 199.122 58.8887 198.929 58.8216 198.661C58.1512 195.728 61.5369 193.431 63.8248 194.554C64.1433 193.062 65.6182 192.04 67.1603 192.224C66.3138 189.551 67.4871 186.844 70.2946 185.537C72.8758 184.338 75.2894 185.327 76.823 187.28C77.703 182.746 81.6167 178.824 86.3852 178.489C88.9748 178.313 91.7152 179.042 93.735 180.743C95.7463 182.428 96.4 184.28 96.9028 186.551C98.4113 184.389 100.842 183.366 103.649 184.238C106.415 185.093 106.767 187.917 106.641 190.456C108.87 188.604 111.552 187.707 114.46 189.459C116.874 190.909 117.402 193.247 117.494 195.786C119.48 194.605 121.533 195.778 121.692 198.493C121.709 198.77 121.567 198.954 121.382 199.038H121.374Z" fill="#EAF9F3"/>
<path d="M293.268 71.335C293.268 83.1432 325.315 85.3221 326.974 71.335C328.642 57.3395 293.268 53.6018 293.268 71.335Z" fill="#DFF1EA"/>
<path d="M34.5352 253.017C34.5352 264.834 74.1919 267.113 75.6333 253.017C77.41 235.636 34.5352 232.334 34.5352 253.017Z" fill="#DFF1EA"/>
<path d="M265.67 319.651C265.67 333.663 312.702 336.37 314.412 319.651C316.515 299.043 265.67 295.121 265.67 319.651Z" fill="#DFF1EA"/>
<path d="M31.1826 72.1649C31.1826 79.875 53.0391 81.3667 53.8352 72.1649C54.8157 60.8176 31.1826 58.6638 31.1826 72.1649Z" fill="#DFF1EA"/>
<path d="M156.447 209.522C157.1 206.245 152.248 203.228 148.51 204.435C149.122 202.189 148.427 200.144 145.108 199.138C143.725 198.719 142.066 198.728 140.608 199.122C143.222 193.909 140.792 187.976 132.713 186.752C123.93 185.42 114.184 189.727 112.441 196.666C105.3 189.643 90.1651 198.057 94.6319 206.136C91.8747 205.7 89.0253 207.259 88.8577 209.581C86.067 208.634 83.8629 211.483 85.5893 213.93C85.715 214.106 85.9748 214.223 86.2262 214.223H160.779C160.972 214.223 161.123 214.173 161.232 214.106C161.349 214.039 161.442 213.939 161.492 213.796C162.338 211.382 159.212 209.086 156.447 209.53V209.522Z" fill="white"/>
<path d="M157.218 265.127C157.511 263.677 155.357 262.344 153.706 262.881C153.974 261.883 153.673 260.987 152.206 260.543C151.594 260.358 150.865 260.358 150.22 260.534C151.376 258.23 150.295 255.606 146.725 255.062C142.845 254.467 138.529 256.377 137.758 259.445C134.598 256.336 127.911 260.056 129.88 263.635C128.657 263.442 127.4 264.129 127.324 265.16C126.092 264.741 125.112 265.998 125.883 267.088C125.941 267.163 126.05 267.213 126.168 267.213H159.137C159.22 267.213 159.288 267.197 159.338 267.163C159.388 267.13 159.43 267.088 159.455 267.021C159.832 265.956 158.449 264.934 157.226 265.135L157.218 265.127Z" fill="white"/>
<path d="M290.301 130.711C290.368 130.753 290.443 130.778 290.544 130.778H336.385C336.586 130.778 336.796 130.636 336.838 130.435C337.34 128.256 334.818 126.546 333.117 127.376C332.874 126.27 331.776 125.507 330.636 125.649C331.265 123.663 330.393 121.644 328.306 120.68C326.387 119.791 324.594 120.521 323.454 121.979C322.8 118.601 319.884 115.685 316.339 115.442C314.411 115.308 312.375 115.853 310.875 117.118C309.375 118.375 308.889 119.75 308.52 121.434C307.397 119.825 305.587 119.071 303.5 119.716C301.438 120.353 301.178 122.456 301.279 124.342C299.62 122.968 297.625 122.297 295.463 123.596C293.669 124.677 293.276 126.412 293.2 128.298C291.725 127.418 290.2 128.298 290.074 130.309C290.066 130.519 290.166 130.653 290.309 130.72L290.301 130.711Z" fill="white"/>
<path d="M170.819 48.3977C170.861 48.4228 170.92 48.4396 170.979 48.4396H201.953C202.087 48.4396 202.23 48.3474 202.263 48.205C202.607 46.73 200.897 45.5735 199.749 46.1433C199.59 45.3975 198.844 44.8779 198.073 44.9701C198.5 43.6292 197.914 42.2632 196.497 41.6095C195.198 41.0061 193.991 41.5005 193.22 42.4894C192.776 40.2099 190.807 38.2405 188.41 38.0729C187.111 37.9807 185.728 38.3494 184.714 39.2043C183.7 40.0507 183.373 40.9809 183.122 42.1207C182.368 41.0312 181.144 40.52 179.736 40.9558C178.345 41.3832 178.169 42.8079 178.236 44.0817C177.113 43.1515 175.772 42.6989 174.306 43.5789C173.09 44.308 172.831 45.4813 172.78 46.7551C171.783 46.1601 170.752 46.7551 170.668 48.1128C170.668 48.2552 170.727 48.3474 170.828 48.3893L170.819 48.3977Z" fill="white"/>
<path d="M244.2 317.17C244.2 317.053 244.158 316.952 244.107 316.877C244.024 316.701 243.856 316.566 243.596 316.575C235.794 316.701 228 316.826 220.198 316.952C219.879 316.952 219.586 317.22 219.594 317.555C219.779 322.064 219.402 326.715 220.148 331.182C220.843 335.347 225.411 335.666 228.939 335.867C233.464 336.127 239.917 336.286 242.515 333.897C245.524 331.123 244.351 321.595 244.2 317.178V317.17Z" fill="#325C60"/>
<path d="M223.667 325.978C220.131 325.978 219.318 322.642 219.309 322.609C219.267 322.416 219.385 322.223 219.577 322.181C219.779 322.139 219.963 322.257 220.013 322.449C220.047 322.584 220.868 325.86 224.706 325.165C227.262 324.704 227.455 319.349 227.455 319.298C227.455 319.122 227.598 318.972 227.774 318.955C227.941 318.93 228.117 319.039 228.167 319.215C228.235 319.449 228.302 319.751 228.385 320.095C228.679 321.394 229.131 323.346 230.061 324.167C231.235 325.19 233.925 325.316 235.308 324.695C236.749 324.134 237.445 322.114 237.394 320.287C237.361 320.027 237.336 319.751 237.319 319.483C237.319 319.29 237.453 319.131 237.646 319.114C237.83 319.097 238.006 319.231 238.04 319.416C238.082 319.684 238.107 319.952 238.115 320.22C238.417 322.181 239.565 323.815 241.032 324.26C242.196 324.603 243.319 324.109 244.208 322.868C244.325 322.709 244.551 322.667 244.711 322.785C244.87 322.902 244.912 323.128 244.794 323.288C243.73 324.779 242.28 325.391 240.83 324.947C239.59 324.578 238.559 323.539 237.939 322.165C237.604 323.614 236.825 324.888 235.601 325.366C234 326.078 231.017 325.953 229.601 324.712C228.754 323.975 228.276 322.592 227.958 321.36C227.623 323.153 226.81 325.525 224.857 325.877C224.438 325.953 224.053 325.986 223.692 325.986L223.667 325.978Z" fill="#5999A4"/>
<path d="M231.361 314.991C228.88 314.991 220.466 315.1 219.544 317.002C218.312 319.667 232.006 319.458 234.654 319.374C247.191 318.963 248.683 314.362 231.369 314.991H231.361Z" fill="#709DA0"/>
<path d="M231.361 314.513C229.928 314.513 217.91 314.304 219.008 317.555C219.544 319.139 222.083 319.282 223.433 319.474C226.408 319.885 229.442 319.902 232.442 319.893C235.098 319.877 237.747 319.743 240.37 319.273C241.543 319.064 244.082 318.661 244.602 317.295C245.943 313.776 232.308 314.48 231.361 314.513C230.741 314.53 230.741 315.494 231.361 315.477C234.101 315.393 236.825 315.393 239.557 315.653C240.035 315.703 244.803 316.34 243.244 317.354C240.361 319.24 235.752 318.905 232.45 318.93C228.763 318.963 224.824 319.03 221.245 318.075C219.511 317.614 220.684 316.608 221.832 316.273C223.039 315.921 224.329 315.812 225.57 315.695C227.489 315.51 229.433 315.477 231.369 315.469C231.989 315.469 231.989 314.505 231.369 314.505L231.361 314.513Z" fill="#5999A4"/>
<path d="M244.367 288.441C244.208 297.92 243.873 307.398 243.747 316.868C243.747 317.329 244.459 317.329 244.468 316.868C244.594 307.398 244.937 297.911 245.088 288.441C245.096 287.98 244.376 287.98 244.367 288.441Z" fill="#325C60"/>
<path d="M217.759 288.282C218.052 297.878 218.178 307.44 219.184 316.994C219.234 317.446 219.955 317.455 219.904 316.994C218.899 307.44 218.773 297.878 218.48 288.282C218.463 287.821 217.742 287.821 217.759 288.282Z" fill="#325C60"/>
<path d="M230.741 289.891C231.545 299.562 230.539 309.267 231.377 318.938C231.419 319.399 232.14 319.399 232.098 318.938C231.252 309.267 232.266 299.562 231.461 289.891C231.419 289.43 230.699 289.43 230.741 289.891Z" fill="#325C60"/>
<path d="M281.485 205.885C278.459 198.216 272.886 190.582 264.162 189.006C264.095 188.998 264.037 188.998 263.978 188.989C263.928 188.989 263.886 188.964 263.835 188.964C257.324 188.302 253.536 194.797 251.239 199.767C247.108 208.751 245.298 218.816 243.672 228.47C240.487 247.469 237.202 268.286 242.775 287.117C243.077 288.156 244.468 288.29 245.046 287.41C251.005 278.251 263.299 275.116 271.16 267.808C279.373 260.174 283.546 249.011 284.879 238.208C286.245 227.196 285.591 216.302 281.485 205.885Z" fill="#5999A4"/>
<path d="M216.636 236.616C213.745 220.986 206.915 205.357 199.037 191.504C198.76 191.026 198.316 190.867 197.889 190.925C197.713 190.925 197.528 190.976 197.336 191.068C189.416 195.141 185.159 202.943 182.494 211.005C179.628 219.654 178.127 230.197 179.46 239.248C181.178 250.964 187.799 261.314 196.523 269.317C203.663 275.887 212.555 280.136 218.941 287.645C219.653 288.483 221.069 287.779 221.061 286.782C220.893 270.046 219.695 253.084 216.644 236.608L216.636 236.616Z" fill="#A6DDE9"/>
<path d="M254.306 179.947C247.309 176.125 239.129 175.48 231.402 177.014C230.925 177.106 230.657 177.391 230.556 177.734C225.88 184.405 225.192 193.733 224.514 201.535C223.432 213.804 223.726 226.199 224.271 238.485C225.008 255.045 226.399 271.647 228.511 288.098C228.595 288.751 229.014 289.313 229.751 289.313H243.99C244.409 289.313 244.862 289.087 245.063 288.709C258.203 264.573 261.882 235.543 264.086 208.633C264.589 202.499 264.992 196.339 265.092 190.188C265.159 186.123 257.281 181.573 254.323 179.955L254.306 179.947Z" fill="#A6DDE9"/>
<path d="M234.595 181.774C232.366 168.926 209.688 179.176 203.688 183.567C198.14 187.623 196.64 191.462 196.28 197.663C195.685 207.996 196.246 218.388 197.553 228.646C199.355 242.734 202.925 256.754 208.658 269.82C210.401 273.8 212.312 277.689 214.407 281.502C215.354 283.228 217.44 288.709 219.485 289.262C222.494 290.075 226.626 289.304 229.743 289.304C230.363 289.304 230.74 288.936 230.883 288.491C230.933 288.374 230.975 288.24 230.983 288.089C232.944 264.666 234.495 241.183 235.299 217.693C235.702 205.91 236.624 193.465 234.595 181.774Z" fill="#5999A4"/>
<path d="M217.432 289.849C226.617 291.559 236.314 291.45 245.49 289.849C248.113 289.397 246.999 285.877 244.384 286.338C235.978 287.796 226.952 287.905 218.538 286.338C215.924 285.852 214.817 289.363 217.432 289.849Z" fill="#325C60"/>
<path d="M132.679 61.3626C132.679 61.3123 132.663 61.2704 132.638 61.2369C132.596 61.1614 132.529 61.1028 132.42 61.1028C129.042 61.1614 125.665 61.2117 122.279 61.2704C122.145 61.2704 122.011 61.3877 122.019 61.5302C122.103 63.4829 121.936 65.4942 122.262 67.4301C122.564 69.2319 124.542 69.3744 126.067 69.4582C128.028 69.5755 130.827 69.6425 131.95 68.6034C133.258 67.4049 132.747 63.2733 132.679 61.3626Z" fill="#09161A"/>
<path d="M123.788 65.1841C122.254 65.1841 121.902 63.7426 121.902 63.7258C121.885 63.642 121.936 63.5582 122.019 63.5415C122.103 63.5247 122.187 63.575 122.204 63.6588C122.221 63.7175 122.573 65.1338 124.24 64.8321C125.347 64.6309 125.43 62.3179 125.43 62.2928C125.43 62.2174 125.489 62.1503 125.564 62.1419C125.64 62.1335 125.715 62.1754 125.732 62.2509C125.757 62.3514 125.791 62.4855 125.824 62.6364C125.95 63.1979 126.143 64.0443 126.553 64.4047C127.065 64.8488 128.229 64.8991 128.824 64.6309C129.445 64.3879 129.755 63.5163 129.73 62.7202C129.713 62.6029 129.704 62.4855 129.696 62.3682C129.696 62.2844 129.755 62.2174 129.839 62.209C129.914 62.209 129.998 62.2593 130.006 62.3431C130.023 62.4604 130.031 62.5693 130.04 62.695C130.174 63.5415 130.668 64.2538 131.305 64.4466C131.808 64.5974 132.294 64.3795 132.68 63.8432C132.73 63.7761 132.83 63.7594 132.897 63.8097C132.964 63.8599 132.981 63.9605 132.931 64.0275C132.47 64.6728 131.841 64.941 131.213 64.7483C130.677 64.589 130.224 64.1365 129.956 63.5415C129.813 64.17 129.47 64.7231 128.942 64.9243C128.246 65.2343 126.956 65.1757 126.344 64.6393C125.975 64.3209 125.774 63.7175 125.631 63.1895C125.481 63.9689 125.129 64.9913 124.282 65.1505C124.098 65.1841 123.93 65.2008 123.779 65.2008L123.788 65.1841Z" fill="#456C7C"/>
<path d="M127.115 60.4241C126.042 60.4241 122.396 60.4744 121.994 61.2957C121.458 62.4522 127.391 62.36 128.539 62.3265C133.97 62.1505 134.615 60.156 127.115 60.4325V60.4241Z" fill="#6B7D7E"/>
<path d="M127.115 60.2145C126.494 60.2145 121.29 60.1223 121.759 61.5302C121.994 62.2174 123.092 62.2761 123.679 62.3599C124.969 62.5359 126.285 62.5442 127.584 62.5442C128.732 62.5442 129.88 62.4772 131.02 62.2761C131.531 62.1839 132.629 62.0079 132.855 61.4213C133.433 59.896 127.534 60.1977 127.123 60.2145C126.855 60.2228 126.855 60.6419 127.123 60.6335C128.305 60.6 129.495 60.5916 130.676 60.7089C130.886 60.734 132.947 61.0022 132.277 61.4464C131.028 62.2593 129.034 62.1168 127.601 62.1336C126 62.1504 124.299 62.1755 122.748 61.7649C122.002 61.5637 122.505 61.1279 123 60.9855C123.519 60.8346 124.081 60.7843 124.617 60.734C125.447 60.6502 126.293 60.6419 127.131 60.6335C127.399 60.6335 127.399 60.2145 127.131 60.2145H127.115Z" fill="#456C7C"/>
<path d="M132.755 48.9175C132.688 53.0239 132.537 57.1304 132.487 61.2368C132.487 61.438 132.797 61.438 132.797 61.2368C132.856 57.1304 132.998 53.0239 133.073 48.9175C133.073 48.7163 132.763 48.7163 132.763 48.9175H132.755Z" fill="#09161A"/>
<path d="M121.223 48.8506C121.349 53.0073 121.408 57.1473 121.843 61.2873C121.86 61.4884 122.179 61.4884 122.154 61.2873C121.718 57.1473 121.667 53.0073 121.533 48.8506C121.533 48.6494 121.215 48.6494 121.223 48.8506Z" fill="#09161A"/>
<path d="M126.847 49.5461C127.199 53.7364 126.755 57.9434 127.123 62.1337C127.14 62.3348 127.45 62.3348 127.433 62.1337C127.065 57.9434 127.509 53.7364 127.157 49.5461C127.14 49.345 126.83 49.345 126.847 49.5461Z" fill="#09161A"/>
<path d="M148.829 13.1577C147.521 9.83904 145.108 6.52873 141.32 5.84152C141.294 5.84152 141.269 5.84152 141.236 5.84152C141.211 5.84152 141.194 5.83314 141.177 5.82476C138.353 5.53982 136.71 8.3473 135.721 10.5095C133.936 14.3981 133.149 18.7559 132.445 22.9462C131.07 31.1759 129.645 40.1933 132.059 48.356C132.193 48.8002 132.788 48.8672 133.04 48.4817C135.621 44.5177 140.951 43.1517 144.353 39.9922C147.915 36.6819 149.717 31.8463 150.295 27.17C150.882 22.4015 150.605 17.6748 148.82 13.1661L148.829 13.1577Z" fill="#456C7C"/>
<path d="M120.737 26.4661C119.48 19.6946 116.53 12.9232 113.111 6.9227C112.993 6.71318 112.801 6.64614 112.616 6.67128C112.541 6.67128 112.457 6.68804 112.373 6.73833C108.946 8.50662 107.094 11.884 105.945 15.3787C104.705 19.1248 104.06 23.6922 104.63 27.6142C105.376 32.6929 108.242 37.1681 112.021 40.6376C115.114 43.487 118.969 45.3307 121.726 48.5824C122.036 48.9427 122.648 48.641 122.648 48.2136C122.572 40.9644 122.053 33.6147 120.729 26.4745L120.737 26.4661Z" fill="#C7E0E8"/>
<path d="M137.054 1.91934C134.02 0.268378 130.484 -0.0165602 127.132 0.645502C126.922 0.687405 126.805 0.813113 126.763 0.955582C124.735 3.84687 124.441 7.88629 124.148 11.2636C123.679 16.5769 123.804 21.9488 124.047 27.2705C124.366 34.4442 124.969 41.6347 125.883 48.7665C125.916 49.0515 126.101 49.2945 126.419 49.2945H132.587C132.772 49.2945 132.964 49.194 133.048 49.0347C138.739 38.5758 140.339 25.9966 141.286 14.3393C141.504 11.6827 141.68 9.01766 141.722 6.34427C141.747 4.58436 138.336 2.60655 137.054 1.91096V1.91934Z" fill="#C7E0E8"/>
<path d="M128.514 2.70718C127.551 -2.8575 117.72 1.58418 115.122 3.48657C112.717 5.24648 112.063 6.90583 111.913 9.59598C111.653 14.0712 111.896 18.5715 112.466 23.0132C113.245 29.1143 114.795 35.1901 117.276 40.847C118.03 42.5734 118.86 44.2579 119.765 45.9088C120.176 46.6547 121.081 49.0348 121.961 49.2694C123.268 49.6214 125.053 49.2862 126.411 49.2862C126.679 49.2862 126.847 49.127 126.905 48.9342C126.93 48.8839 126.947 48.8253 126.947 48.7582C127.794 38.6094 128.464 28.4354 128.816 18.2615C128.992 13.1577 129.386 7.76064 128.514 2.6988V2.70718Z" fill="#456C7C"/>
<path d="M121.081 49.5293C125.061 50.2752 129.26 50.2249 133.232 49.5293C134.372 49.3366 133.886 47.8113 132.755 48.0041C129.117 48.641 125.204 48.6829 121.558 48.0041C120.427 47.7946 119.949 49.3198 121.081 49.5293Z" fill="#09161A"/>
<path d="M137.037 127.342L149.449 99.9662H161.745L149.043 127.342H137.037ZM137.037 133.548V127.342L140.169 124.036H171.141V133.548H137.037ZM156.409 141.262V117.134H167.719V141.262H156.409ZM191.741 141.958C188.183 141.958 185.013 141.05 182.229 139.232C179.483 137.376 177.318 134.844 175.733 131.634C174.147 128.386 173.355 124.694 173.355 120.556C173.355 116.419 174.128 112.746 175.675 109.536C177.26 106.327 179.425 103.814 182.171 101.996C184.916 100.179 188.067 99.2702 191.625 99.2702C195.221 99.2702 198.391 100.179 201.137 101.996C203.921 103.814 206.086 106.327 207.633 109.536C209.218 112.746 210.011 116.438 210.011 120.614C210.011 124.79 209.218 128.483 207.633 131.692C206.086 134.902 203.94 137.415 201.195 139.232C198.449 141.05 195.298 141.958 191.741 141.958ZM191.683 132.098C193.113 132.098 194.331 131.654 195.337 130.764C196.342 129.875 197.096 128.58 197.599 126.878C198.14 125.138 198.411 123.05 198.411 120.614C198.411 118.178 198.14 116.11 197.599 114.408C197.096 112.707 196.342 111.412 195.337 110.522C194.331 109.594 193.094 109.13 191.625 109.13C190.233 109.13 189.034 109.575 188.029 110.464C187.023 111.354 186.25 112.649 185.709 114.35C185.206 116.052 184.955 118.12 184.955 120.556C184.955 122.992 185.206 125.08 185.709 126.82C186.25 128.522 187.023 129.836 188.029 130.764C189.034 131.654 190.252 132.098 191.683 132.098ZM212.086 127.342L224.498 99.9662H236.794L224.092 127.342H212.086ZM212.086 133.548V127.342L215.218 124.036H246.19V133.548H212.086ZM231.458 141.262V117.134H242.768V141.262H231.458Z" fill="white"/>
</g>
<defs>
<clipPath id="clip0_172_7800">
<rect width="356.55" height="336.001" fill="white" transform="translate(0.225098)"/>
</clipPath>
</defs>
</svg>
