<svg width="22" height="21" viewBox="0 0 22 21" fill="none" xmlns="http://www.w3.org/2000/svg">
<path d="M18.2998 7.21875V15.75C18.2998 18.375 16.7336 19.25 14.7998 19.25H7.7998C5.86605 19.25 4.2998 18.375 4.2998 15.75V7.21875C4.2998 4.375 5.86605 3.71875 7.7998 3.71875C7.7998 4.26125 8.01853 4.75125 8.37728 5.11C8.73603 5.46875 9.22605 5.6875 9.76855 5.6875H12.8311C13.9161 5.6875 14.7998 4.80375 14.7998 3.71875C16.7336 3.71875 18.2998 4.375 18.2998 7.21875Z" stroke="#B4B4B4" stroke-width="1.5" stroke-linecap="round" stroke-linejoin="round"/>
<path d="M14.7998 3.71875C14.7998 4.80375 13.9161 5.6875 12.8311 5.6875H9.76855C9.22605 5.6875 8.73603 5.46875 8.37728 5.11C8.01853 4.75125 7.7998 4.26125 7.7998 3.71875C7.7998 2.63375 8.68355 1.75 9.76855 1.75H12.8311C13.3736 1.75 13.8636 1.96875 14.2223 2.3275C14.5811 2.68625 14.7998 3.17625 14.7998 3.71875Z" stroke="#B4B4B4" stroke-width="1.5" stroke-linecap="round" stroke-linejoin="round"/>
<path d="M7.7998 11.375H11.2998" stroke="#B4B4B4" stroke-width="1.5" stroke-linecap="round" stroke-linejoin="round"/>
<path d="M7.7998 14.875H14.7998" stroke="#B4B4B4" stroke-width="1.5" stroke-linecap="round" stroke-linejoin="round"/>
</svg>
