<svg width="24" height="24" viewBox="0 0 24 24" fill="none" xmlns="http://www.w3.org/2000/svg">
<path d="M21.2907 15.8908C21.1391 15.635 20.7128 15.2371 19.6517 15.4265C19.0643 15.5307 18.4675 15.5781 17.8706 15.5497C15.6632 15.455 13.6641 14.4412 12.2715 12.878C11.0399 11.5043 10.2819 9.71373 10.2725 7.78103C10.2725 6.701 10.4809 5.65886 10.9072 4.67357C11.3241 3.7167 11.0304 3.21458 10.822 3.00615C10.6041 2.78825 10.0925 2.48508 9.08821 2.90194C5.21336 4.53146 2.81644 8.41579 3.10066 12.5749C3.38488 16.4876 6.13233 19.8319 9.77034 21.092C10.6419 21.3951 11.5609 21.5751 12.5083 21.613C12.6599 21.6225 12.8115 21.632 12.9631 21.632C16.1369 21.632 19.1117 20.1351 20.9875 17.5866C21.6223 16.7055 21.4518 16.1466 21.2907 15.8908Z" fill="#B4B4B4"/>
</svg>
