<svg width="20" height="20" viewBox="0 0 20 20" fill="none" xmlns="http://www.w3.org/2000/svg">
<path d="M17.5584 4.35841C16.2167 4.22508 14.875 4.12508 13.525 4.05008V4.04175L13.3417 2.95841C13.2167 2.19175 13.0334 1.04175 11.0834 1.04175H8.90005C6.95838 1.04175 6.77505 2.14175 6.64172 2.95008L6.46672 4.01675C5.69172 4.06675 4.91672 4.11675 4.14172 4.19175L2.44172 4.35841C2.09172 4.39175 1.84172 4.70008 1.87505 5.04175C1.90838 5.38341 2.20838 5.63341 2.55838 5.60008L4.25838 5.43341C8.62505 5.00008 13.0251 5.16675 17.4417 5.60841C17.4667 5.60841 17.4834 5.60841 17.5084 5.60841C17.8251 5.60841 18.1 5.36675 18.1334 5.04175C18.1584 4.70008 17.9084 4.39175 17.5584 4.35841Z" fill="black"/>
<path d="M16.025 6.78325C15.825 6.57492 15.55 6.45825 15.2666 6.45825H4.73329C4.44995 6.45825 4.16662 6.57492 3.97495 6.78325C3.78329 6.99159 3.67495 7.27492 3.69162 7.56659L4.20829 16.1166C4.29995 17.3833 4.41662 18.9666 7.32495 18.9666H12.675C15.5833 18.9666 15.7 17.3916 15.7916 16.1166L16.3083 7.57492C16.325 7.27492 16.2166 6.99159 16.025 6.78325ZM11.3833 14.7916H8.60829C8.26662 14.7916 7.98329 14.5083 7.98329 14.1666C7.98329 13.8249 8.26662 13.5416 8.60829 13.5416H11.3833C11.725 13.5416 12.0083 13.8249 12.0083 14.1666C12.0083 14.5083 11.725 14.7916 11.3833 14.7916ZM12.0833 11.4583H7.91662C7.57495 11.4583 7.29162 11.1749 7.29162 10.8333C7.29162 10.4916 7.57495 10.2083 7.91662 10.2083H12.0833C12.425 10.2083 12.7083 10.4916 12.7083 10.8333C12.7083 11.1749 12.425 11.4583 12.0833 11.4583Z" fill="black"/>
</svg>
