<svg xmlns="http://www.w3.org/2000/svg" width="21" height="17" viewBox="0 0 21 17" fill="none">
  <path d="M15.5 0H5.5C2.5 0 0.5 1.5 0.5 5V12C0.5 15.5 2.5 17 5.5 17H15.5C18.5 17 20.5 15.5 20.5 12V5C20.5 1.5 18.5 0 15.5 0ZM15.97 6.09L12.84 8.59C12.18 9.12 11.34 9.38 10.5 9.38C9.66 9.38 8.81 9.12 8.16 8.59L5.03 6.09C4.71 5.83 4.66 5.35 4.91 5.03C5.17 4.71 5.64 4.65 5.96 4.91L9.09 7.41C9.85 8.02 11.14 8.02 11.9 7.41L15.03 4.91C15.35 4.65 15.83 4.7 16.08 5.03C16.34 5.35 16.29 5.83 15.97 6.09Z" fill="black"/>
</svg>