<svg width="15" height="16" viewBox="0 0 15 16" fill="none" xmlns="http://www.w3.org/2000/svg">
<path fill-rule="evenodd" clip-rule="evenodd" d="M14.3083 7.9659C14.3083 7.44826 14.2618 6.95054 14.1756 6.47272H7.30029V9.29649H11.229C11.0598 10.209 10.5455 10.9821 9.77234 11.4998V13.3314H12.1316C13.5119 12.0605 14.3083 10.1891 14.3083 7.9659Z" fill="#4285F4"/>
<path fill-rule="evenodd" clip-rule="evenodd" d="M7.29991 15.1C9.27092 15.1 10.9234 14.4463 12.1312 13.3314L9.77196 11.4998C9.11828 11.9378 8.2821 12.1966 7.29991 12.1966C5.3986 12.1966 3.78928 10.9125 3.21523 9.18701H0.776367V11.0784C1.97755 13.4641 4.44628 15.1 7.29991 15.1Z" fill="#34A853"/>
<path fill-rule="evenodd" clip-rule="evenodd" d="M3.21532 9.18703C3.06932 8.74903 2.98636 8.28117 2.98636 7.80003C2.98636 7.3189 3.06932 6.85103 3.21532 6.41303V4.52167H0.776455C0.282046 5.50717 0 6.62208 0 7.80003C0 8.97799 0.282046 10.0929 0.776455 11.0784L3.21532 9.18703Z" fill="#FBBC05"/>
<path fill-rule="evenodd" clip-rule="evenodd" d="M7.29991 3.40341C8.37169 3.40341 9.33396 3.77173 10.0905 4.49509L12.1843 2.40132C10.9201 1.22336 9.2676 0.5 7.29991 0.5C4.44628 0.5 1.97755 2.13586 0.776367 4.52164L3.21523 6.413C3.78928 4.68755 5.3986 3.40341 7.29991 3.40341Z" fill="#EA4335"/>
</svg>
