<svg width="30" height="30" viewBox="0 0 30 30" fill="none" xmlns="http://www.w3.org/2000/svg">
<path d="M11.4502 13.5875C11.3252 13.575 11.1752 13.575 11.0377 13.5875C8.0627 13.4875 5.7002 11.05 5.7002 8.05C5.7002 4.9875 8.1752 2.5 11.2502 2.5C14.3127 2.5 16.8002 4.9875 16.8002 8.05C16.7877 11.05 14.4252 13.4875 11.4502 13.5875Z" stroke="black" stroke-width="2.125" stroke-linecap="round" stroke-linejoin="round"/>
<path d="M20.5126 5C22.9376 5 24.8876 6.9625 24.8876 9.375C24.8876 11.7375 23.0126 13.6625 20.6751 13.75C20.5751 13.7375 20.4626 13.7375 20.3501 13.75" stroke="black" stroke-width="2.125" stroke-linecap="round" stroke-linejoin="round"/>
<path d="M5.1999 18.2C2.1749 20.225 2.1749 23.525 5.1999 25.5375C8.6374 27.8375 14.2749 27.8375 17.7124 25.5375C20.7374 23.5125 20.7374 20.2125 17.7124 18.2C14.2874 15.9125 8.6499 15.9125 5.1999 18.2Z" stroke="black" stroke-width="2.125" stroke-linecap="round" stroke-linejoin="round"/>
<path d="M22.9248 25C23.8248 24.8125 24.6748 24.45 25.3748 23.9125C27.3248 22.45 27.3248 20.0375 25.3748 18.575C24.6873 18.05 23.8498 17.7 22.9623 17.5" stroke="black" stroke-width="2.125" stroke-linecap="round" stroke-linejoin="round"/>
</svg>
