<svg width="37" height="37" viewBox="0 0 37 37" fill="none" xmlns="http://www.w3.org/2000/svg">
<path d="M24.9595 3.0835H12.0403C6.42867 3.0835 3.08325 6.42891 3.08325 12.0406V24.9443C3.08325 30.5714 6.42867 33.9168 12.0403 33.9168H24.9441C30.5558 33.9168 33.9012 30.5714 33.9012 24.9597V12.0406C33.9166 6.42891 30.5712 3.0835 24.9595 3.0835ZM26.2083 26.9331C23.572 26.9331 21.1053 25.7922 19.132 23.6802C16.8966 25.6997 13.9828 26.9331 10.7916 26.9331C10.1595 26.9331 9.63534 26.4089 9.63534 25.7768C9.63534 25.1447 10.1595 24.6206 10.7916 24.6206C16.1412 24.6206 20.5658 20.381 21.1362 14.9543H18.4999H10.807C10.1749 14.9543 9.65075 14.4302 9.65075 13.7981C9.65075 13.166 10.1749 12.6572 10.807 12.6572H17.3437V11.2235C17.3437 10.5914 17.8678 10.0672 18.4999 10.0672C19.132 10.0672 19.6562 10.5914 19.6562 11.2235V12.6572H22.2616C22.2924 12.6572 22.3233 12.6418 22.3541 12.6418C22.3849 12.6418 22.4158 12.6572 22.4466 12.6572H26.1928C26.8249 12.6572 27.3491 13.1814 27.3491 13.8135C27.3491 14.4456 26.8249 14.9697 26.1928 14.9697H23.4487C23.2174 17.606 22.2308 20.0264 20.7199 21.9997C22.2616 23.711 24.1887 24.636 26.2083 24.636C26.8403 24.636 27.3645 25.1602 27.3645 25.7922C27.3645 26.4243 26.8403 26.9331 26.2083 26.9331Z" fill="#292032"/>
</svg>
