<svg width="24" height="25" viewBox="0 0 24 25" fill="none" xmlns="http://www.w3.org/2000/svg">
<g opacity="0.2">
<path d="M21.25 9.64993C18.94 6.01993 15.56 3.92993 12 3.92993C10.22 3.92993 8.49 4.44993 6.91 5.41993C5.33 6.39993 3.91 7.82993 2.75 9.64993C1.75 11.2199 1.75 13.7699 2.75 15.3399C5.06 18.9799 8.44 21.0599 12 21.0599C13.78 21.0599 15.51 20.5399 17.09 19.5699C18.67 18.5899 20.09 17.1599 21.25 15.3399C22.25 13.7799 22.25 11.2199 21.25 9.64993ZM12 16.5399C9.76 16.5399 7.96 14.7299 7.96 12.4999C7.96 10.2699 9.76 8.45993 12 8.45993C14.24 8.45993 16.04 10.2699 16.04 12.4999C16.04 14.7299 14.24 16.5399 12 16.5399Z" fill="white"/>
<path d="M11.9999 9.63989C10.4299 9.63989 9.1499 10.9199 9.1499 12.4999C9.1499 14.0699 10.4299 15.3499 11.9999 15.3499C13.5699 15.3499 14.8599 14.0699 14.8599 12.4999C14.8599 10.9299 13.5699 9.63989 11.9999 9.63989Z" fill="white"/>
</g>
</svg>
