<svg width="37" height="37" viewBox="0 0 37 37" fill="none" xmlns="http://www.w3.org/2000/svg">
<path d="M31.5847 17.7293C31.5847 25.3815 25.3813 31.5849 17.7291 31.5849C10.0769 31.5849 3.87352 25.3815 3.87352 17.7293C3.87352 10.0771 10.0769 3.87376 17.7291 3.87376C25.3813 3.87376 31.5847 10.0771 31.5847 17.7293Z" stroke="black" stroke-width="1.58054"/>
<path d="M32.8372 33.9166C32.5597 33.9166 32.2822 33.8087 32.0818 33.6083L29.2143 30.7408C28.798 30.3245 28.798 29.6462 29.2143 29.2145C29.6305 28.7983 30.3089 28.7983 30.7405 29.2145L33.608 32.082C34.0243 32.4983 34.0243 33.1766 33.608 33.6083C33.3922 33.8087 33.1147 33.9166 32.8372 33.9166Z" fill="black"/>
</svg>
