<svg width="22" height="22" viewBox="0 0 22 22" fill="none" xmlns="http://www.w3.org/2000/svg">
<path d="M6.73242 16.5151L9.52242 18.6751C9.88242 19.0351 10.6924 19.2151 11.2324 19.2151H14.6524C15.7324 19.2151 16.9024 18.4051 17.1724 17.3251L19.3324 10.7551C19.7824 9.49512 18.9724 8.41512 17.6224 8.41512H14.0224C13.4824 8.41512 13.0324 7.96512 13.1224 7.33512L13.5724 4.45512C13.7524 3.64512 13.2124 2.74512 12.4024 2.47512C11.6824 2.20512 10.7824 2.56512 10.4224 3.10512L6.73242 8.59512" stroke="#B4B4B4" stroke-width="1.35" stroke-miterlimit="10"/>
<path d="M2.1416 16.5149V7.69486C2.1416 6.43486 2.6816 5.98486 3.9416 5.98486H4.8416C6.1016 5.98486 6.6416 6.43486 6.6416 7.69486V16.5149C6.6416 17.7749 6.1016 18.2249 4.8416 18.2249H3.9416C2.6816 18.2249 2.1416 17.7749 2.1416 16.5149Z" stroke="#B4B4B4" stroke-width="1.35" stroke-linecap="round" stroke-linejoin="round"/>
</svg>
