<svg width="22" height="22" viewBox="0 0 22 22" fill="none" xmlns="http://www.w3.org/2000/svg">
<path d="M15.268 5.08525L12.478 2.92525C12.118 2.56525 11.308 2.38525 10.768 2.38525H7.34795C6.26795 2.38525 5.09795 3.19525 4.82795 4.27525L2.66795 10.8453C2.21795 12.1053 3.02795 13.1853 4.37795 13.1853H7.97795C8.51795 13.1853 8.96795 13.6353 8.87795 14.2653L8.42795 17.1453C8.24795 17.9553 8.78796 18.8553 9.59796 19.1253C10.318 19.3953 11.218 19.0353 11.578 18.4953L15.268 13.0053" stroke="#B4B4B4" stroke-width="1.35" stroke-miterlimit="10"/>
<path d="M19.8584 5.085V13.905C19.8584 15.165 19.3184 15.615 18.0584 15.615H17.1584C15.8984 15.615 15.3584 15.165 15.3584 13.905V5.085C15.3584 3.825 15.8984 3.375 17.1584 3.375H18.0584C19.3184 3.375 19.8584 3.825 19.8584 5.085Z" stroke="#B4B4B4" stroke-width="1.35" stroke-linecap="round" stroke-linejoin="round"/>
</svg>
