<svg width="20" height="21" viewBox="0 0 20 21" fill="none" xmlns="http://www.w3.org/2000/svg">
<path d="M14.1665 2.16675H5.83317C3.53317 2.16675 1.6665 4.02508 1.6665 6.31675V11.3001V12.1334C1.6665 14.4251 3.53317 16.2834 5.83317 16.2834H7.08317C7.30817 16.2834 7.60817 16.4334 7.74984 16.6167L8.99984 18.2751C9.54984 19.0084 10.4498 19.0084 10.9998 18.2751L12.2498 16.6167C12.4082 16.4084 12.6582 16.2834 12.9165 16.2834H14.1665C16.4665 16.2834 18.3332 14.4251 18.3332 12.1334V6.31675C18.3332 4.02508 16.4665 2.16675 14.1665 2.16675ZM6.6665 10.5001C6.19984 10.5001 5.83317 10.1251 5.83317 9.66675C5.83317 9.20841 6.20817 8.83341 6.6665 8.83341C7.12484 8.83341 7.49984 9.20841 7.49984 9.66675C7.49984 10.1251 7.13317 10.5001 6.6665 10.5001ZM9.99984 10.5001C9.53317 10.5001 9.1665 10.1251 9.1665 9.66675C9.1665 9.20841 9.5415 8.83341 9.99984 8.83341C10.4582 8.83341 10.8332 9.20841 10.8332 9.66675C10.8332 10.1251 10.4665 10.5001 9.99984 10.5001ZM13.3332 10.5001C12.8665 10.5001 12.4998 10.1251 12.4998 9.66675C12.4998 9.20841 12.8748 8.83341 13.3332 8.83341C13.7915 8.83341 14.1665 9.20841 14.1665 9.66675C14.1665 10.1251 13.7998 10.5001 13.3332 10.5001Z" fill="black"/>
</svg>
