<svg width="24" height="25" viewBox="0 0 24 25" fill="none" xmlns="http://www.w3.org/2000/svg">
<path d="M12 2.5C6.49 2.5 2 6.99 2 12.5C2 18.01 6.49 22.5 12 22.5C17.51 22.5 22 18.01 22 12.5C22 6.99 17.51 2.5 12 2.5ZM11.25 8.5C11.25 8.09 11.59 7.75 12 7.75C12.41 7.75 12.75 8.09 12.75 8.5V13.5C12.75 13.91 12.41 14.25 12 14.25C11.59 14.25 11.25 13.91 11.25 13.5V8.5ZM12.92 16.88C12.87 17.01 12.8 17.11 12.71 17.21C12.61 17.3 12.5 17.37 12.38 17.42C12.26 17.47 12.13 17.5 12 17.5C11.87 17.5 11.74 17.47 11.62 17.42C11.5 17.37 11.39 17.3 11.29 17.21C11.2 17.11 11.13 17.01 11.08 16.88C11.03 16.76 11 16.63 11 16.5C11 16.37 11.03 16.24 11.08 16.12C11.13 16 11.2 15.89 11.29 15.79C11.39 15.7 11.5 15.63 11.62 15.58C11.86 15.48 12.14 15.48 12.38 15.58C12.5 15.63 12.61 15.7 12.71 15.79C12.8 15.89 12.87 16 12.92 16.12C12.97 16.24 13 16.37 13 16.5C13 16.63 12.97 16.76 12.92 16.88Z" fill="black"/>
</svg>
