<svg width="24" height="24" viewBox="0 0 24 24" fill="none" xmlns="http://www.w3.org/2000/svg">
<path d="M12.3349 18.7992C15.9975 18.7992 18.9667 15.8301 18.9667 12.1674C18.9667 8.5048 15.9975 5.53564 12.3349 5.53564C8.67228 5.53564 5.70312 8.5048 5.70312 12.1674C5.70312 15.8301 8.67228 18.7992 12.3349 18.7992Z" fill="black"/>
<path d="M12.3347 22.5509C11.8136 22.5509 11.3873 22.1625 11.3873 21.6414V21.5657C11.3873 21.0446 11.8136 20.6183 12.3347 20.6183C12.8558 20.6183 13.2821 21.0446 13.2821 21.5657C13.2821 22.0867 12.8558 22.5509 12.3347 22.5509ZM19.0991 19.8793C18.8528 19.8793 18.616 19.7845 18.4265 19.6045L18.3033 19.4814C17.9338 19.1119 17.9338 18.515 18.3033 18.1455C18.6728 17.7761 19.2697 17.7761 19.6391 18.1455L19.7623 18.2687C20.1318 18.6382 20.1318 19.2351 19.7623 19.6045C19.5823 19.7845 19.3454 19.8793 19.0991 19.8793ZM5.57029 19.8793C5.32396 19.8793 5.08711 19.7845 4.89763 19.6045C4.52815 19.2351 4.52815 18.6382 4.89763 18.2687L5.0208 18.1455C5.39028 17.7761 5.98714 17.7761 6.35663 18.1455C6.72611 18.515 6.72611 19.1119 6.35663 19.4814L6.23346 19.6045C6.05346 19.7845 5.80714 19.8793 5.57029 19.8793ZM21.8087 13.1149H21.7329C21.2118 13.1149 20.7855 12.6885 20.7855 12.1675C20.7855 11.6464 21.2118 11.2201 21.7329 11.2201C22.254 11.2201 22.7182 11.6464 22.7182 12.1675C22.7182 12.6885 22.3298 13.1149 21.8087 13.1149ZM2.93652 13.1149H2.86073C2.33966 13.1149 1.91333 12.6885 1.91333 12.1675C1.91333 11.6464 2.33966 11.2201 2.86073 11.2201C3.3818 11.2201 3.84602 11.6464 3.84602 12.1675C3.84602 12.6885 3.45759 13.1149 2.93652 13.1149ZM18.976 6.47361C18.7296 6.47361 18.4928 6.37887 18.3033 6.19886C17.9338 5.82938 17.9338 5.23252 18.3033 4.86303L18.4265 4.73987C18.796 4.37039 19.3928 4.37039 19.7623 4.73987C20.1318 5.10936 20.1318 5.70622 19.7623 6.0757L19.6391 6.19886C19.4591 6.37887 19.2223 6.47361 18.976 6.47361ZM5.69345 6.47361C5.44712 6.47361 5.21027 6.37887 5.0208 6.19886L4.89763 6.06623C4.52815 5.69674 4.52815 5.09988 4.89763 4.7304C5.26712 4.36091 5.86398 4.36091 6.23346 4.7304L6.35663 4.85356C6.72611 5.22304 6.72611 5.8199 6.35663 6.18939C6.17662 6.37887 5.9303 6.47361 5.69345 6.47361ZM12.3347 3.67879C11.8136 3.67879 11.3873 3.29035 11.3873 2.76928V2.69349C11.3873 2.17242 11.8136 1.74609 12.3347 1.74609C12.8558 1.74609 13.2821 2.17242 13.2821 2.69349C13.2821 3.21456 12.8558 3.67879 12.3347 3.67879Z" fill="black"/>
</svg>
