<svg width="37" height="37" viewBox="0 0 37 37" fill="none" xmlns="http://www.w3.org/2000/svg">
<path d="M29.8156 22.3389L28.2739 19.7797C27.9502 19.2093 27.6573 18.1302 27.6573 17.4981V13.5977C27.6573 9.97475 25.5298 6.84516 22.4618 5.38058C21.6602 3.96225 20.1802 3.0835 18.4843 3.0835C16.8039 3.0835 15.2931 3.99308 14.4914 5.42683C11.4852 6.92225 9.40392 10.021 9.40392 13.5977V17.4981C9.40392 18.1302 9.111 19.2093 8.78725 19.7643L7.23017 22.3389C6.6135 23.3718 6.47475 24.5127 6.86017 25.561C7.23017 26.5939 8.10892 27.3956 9.24975 27.781C12.2406 28.7985 15.3856 29.2918 18.5306 29.2918C21.6756 29.2918 24.8206 28.7985 27.8114 27.7964C28.8906 27.4418 29.7231 26.6247 30.1239 25.561C30.5248 24.4972 30.4168 23.3256 29.8156 22.3389Z" fill="black"/>
<path d="M22.8628 30.8487C22.2153 32.637 20.504 33.9166 18.4998 33.9166C17.2819 33.9166 16.0794 33.4233 15.2315 32.5445C14.7382 32.082 14.3682 31.4653 14.1523 30.8333C14.3528 30.8641 14.5532 30.8795 14.769 30.9103C15.1236 30.9566 15.4936 31.0028 15.8636 31.0337C16.7423 31.1108 17.6365 31.157 18.5307 31.157C19.4094 31.157 20.2882 31.1108 21.1515 31.0337C21.4753 31.0028 21.799 30.9874 22.1073 30.9412C22.354 30.9103 22.6007 30.8795 22.8628 30.8487Z" fill="black"/>
</svg>
