<svg width="20" height="20" viewBox="0 0 20 20" fill="none" xmlns="http://www.w3.org/2000/svg">
<path d="M17.5 18.3333H2.5C2.15833 18.3333 1.875 18.0499 1.875 17.7083C1.875 17.3666 2.15833 17.0833 2.5 17.0833H17.5C17.8417 17.0833 18.125 17.3666 18.125 17.7083C18.125 18.0499 17.8417 18.3333 17.5 18.3333Z" fill="black"/>
<path d="M15.85 2.90005C14.2333 1.28338 12.65 1.24172 10.9916 2.90005L9.98331 3.90838C9.89998 3.99172 9.86665 4.12505 9.89998 4.24172C10.5333 6.45005 12.3 8.21672 14.5083 8.85005C14.5416 8.85838 14.575 8.86672 14.6083 8.86672C14.7 8.86672 14.7833 8.83338 14.85 8.76672L15.85 7.75838C16.675 6.94172 17.075 6.15005 17.075 5.35005C17.0833 4.52505 16.6833 3.72505 15.85 2.90005Z" fill="black"/>
<path d="M13.0084 9.60841C12.7668 9.49175 12.5334 9.37508 12.3084 9.24175C12.1251 9.13341 11.9501 9.01675 11.7751 8.89175C11.6334 8.80008 11.4668 8.66675 11.3084 8.53341C11.2918 8.52508 11.2334 8.47508 11.1668 8.40841C10.8918 8.17508 10.5834 7.87508 10.3084 7.54175C10.2834 7.52508 10.2418 7.46675 10.1834 7.39175C10.1001 7.29175 9.95844 7.12508 9.83344 6.93341C9.73344 6.80841 9.61677 6.62508 9.50844 6.44175C9.3751 6.21675 9.25844 5.99175 9.14177 5.75841C8.9888 5.43063 8.55859 5.33326 8.30282 5.58903L3.61677 10.2751C3.50844 10.3834 3.40844 10.5917 3.38344 10.7334L2.93344 13.9251C2.8501 14.4917 3.00844 15.0251 3.35844 15.3834C3.65844 15.6751 4.0751 15.8334 4.5251 15.8334C4.6251 15.8334 4.7251 15.8251 4.8251 15.8084L8.0251 15.3584C8.1751 15.3334 8.38344 15.2334 8.48344 15.1251L13.1772 10.4313C13.4279 10.1806 13.3337 9.74936 13.0084 9.60841Z" fill="black"/>
</svg>
