<svg width="15" height="15" viewBox="0 0 15 15" fill="none" xmlns="http://www.w3.org/2000/svg">
<path d="M13.9742 5.59193L11.2684 8.29766C10.9195 8.64618 10.6815 9.09026 10.5847 9.57387L10.1531 11.725C10.1235 11.8729 10.0543 12.01 9.95294 12.1216C9.85158 12.2333 9.72181 12.3153 9.57748 12.359C9.43316 12.4027 9.27967 12.4065 9.1334 12.3698C8.98712 12.3331 8.85353 12.2575 8.74688 12.1509L6.01781 9.42179L0.716343 14.7253C0.677908 14.7651 0.631933 14.7969 0.5811 14.8187C0.530267 14.8405 0.475594 14.852 0.420272 14.8525C0.364949 14.853 0.310085 14.8425 0.25888 14.8215C0.207675 14.8006 0.161155 14.7696 0.122034 14.7305C0.0829137 14.6914 0.0519761 14.6449 0.0310265 14.5937C0.0100769 14.5425 -0.000465007 14.4876 1.57315e-05 14.4323C0.00049647 14.3769 0.0119903 14.3223 0.0338266 14.2714C0.0556629 14.2206 0.0874045 14.1746 0.127199 14.1362L5.43033 8.83264L2.70127 6.10358C2.59511 5.99687 2.51984 5.86341 2.48344 5.71736C2.44705 5.57132 2.45089 5.41814 2.49456 5.2741C2.53823 5.13006 2.6201 5.00053 2.73147 4.89928C2.84284 4.79803 2.97955 4.72884 3.12709 4.69905L5.27701 4.26906C5.76106 4.17247 6.20561 3.93454 6.55446 3.58534L9.26019 0.879608C9.72901 0.410821 10.3648 0.147461 11.0278 0.147461C11.6908 0.147461 12.3267 0.410821 12.7955 0.879608L13.9742 2.05831C14.4425 2.52706 14.7055 3.16254 14.7055 3.82512C14.7055 4.4877 14.4425 5.12318 13.9742 5.59193Z" fill="black"/>
</svg>
