<svg width="24" height="25" viewBox="0 0 24 25" fill="none" xmlns="http://www.w3.org/2000/svg">
<path d="M12.75 16.4201H13.4C14.05 16.4201 14.59 15.8401 14.59 15.1401C14.59 14.2701 14.28 14.1001 13.77 13.9201L12.76 13.5701V16.4201H12.75Z" fill="black"/>
<path d="M11.9701 2.39992C6.45007 2.41992 1.98007 6.90992 2.00007 12.4299C2.02007 17.9499 6.51007 22.4199 12.0301 22.3999C17.5501 22.3799 22.0201 17.8899 22.0001 12.3699C21.9801 6.84992 17.4901 2.38992 11.9701 2.39992ZM14.2601 12.4999C15.0401 12.7699 16.0901 13.3499 16.0901 15.1399C16.0901 16.6799 14.8801 17.9199 13.4001 17.9199H12.7501V18.4999C12.7501 18.9099 12.4101 19.2499 12.0001 19.2499C11.5901 19.2499 11.2501 18.9099 11.2501 18.4999V17.9199H10.8901C9.25007 17.9199 7.92007 16.5399 7.92007 14.8399C7.92007 14.4299 8.26007 14.0899 8.67007 14.0899C9.08007 14.0899 9.42007 14.4299 9.42007 14.8399C9.42007 15.7099 10.0801 16.4199 10.8901 16.4199H11.2501V13.0399L9.74007 12.4999C8.96007 12.2299 7.91007 11.6499 7.91007 9.85992C7.91007 8.31992 9.12007 7.07992 10.6001 7.07992H11.2501V6.49992C11.2501 6.08992 11.5901 5.74992 12.0001 5.74992C12.4101 5.74992 12.7501 6.08992 12.7501 6.49992V7.07992H13.1101C14.7501 7.07992 16.0801 8.45992 16.0801 10.1599C16.0801 10.5699 15.7401 10.9099 15.3301 10.9099C14.9201 10.9099 14.5801 10.5699 14.5801 10.1599C14.5801 9.28992 13.9201 8.57992 13.1101 8.57992H12.7501V11.9599L14.2601 12.4999Z" fill="black"/>
<path d="M9.41992 9.87008C9.41992 10.7401 9.72992 10.9101 10.2399 11.0901L11.2499 11.4401V8.58008H10.5999C9.94992 8.58008 9.41992 9.16008 9.41992 9.87008Z" fill="black"/>
</svg>
