<svg width="36" height="36" viewBox="0 0 36 36" fill="none" xmlns="http://www.w3.org/2000/svg">
<path d="M24.2102 4.44006L10.6652 8.94006C1.56018 11.9851 1.56018 16.9501 10.6652 19.9801L14.6852 21.3151L16.0202 25.3351C19.0502 34.4401 24.0302 34.4401 27.0602 25.3351L31.5752 11.8051C33.5852 5.73006 30.2852 2.41506 24.2102 4.44006ZM24.6902 12.5101L18.9902 18.2401C18.7652 18.4651 18.4802 18.5701 18.1952 18.5701C17.9102 18.5701 17.6252 18.4651 17.4002 18.2401C16.9652 17.8051 16.9652 17.0851 17.4002 16.6501L23.1002 10.9201C23.5352 10.4851 24.2552 10.4851 24.6902 10.9201C25.1252 11.3551 25.1252 12.0751 24.6902 12.5101Z" fill="white"/>
</svg>
