<svg width="30" height="31" viewBox="0 0 30 31" fill="none" xmlns="http://www.w3.org/2000/svg">
<path d="M24.0375 5.72495L24.2 5.42495C24.3875 5.08745 24.3375 4.66245 24.0875 4.36245C23.8375 4.06245 23.425 3.96245 23.05 4.09995C17.8625 5.99995 12.1375 5.99995 6.94996 4.09995C6.57496 3.96245 6.17496 4.06245 5.91246 4.36245C5.66246 4.66245 5.61246 5.07495 5.79996 5.42495L5.96246 5.71245C9.23746 11.95 9.19997 19.3625 5.83746 25.5625C5.64996 25.9 5.69997 26.325 5.94997 26.625C6.19997 26.925 6.61246 27.025 6.97496 26.8875C12.1375 25 17.8375 25 23.0125 26.8875C23.1125 26.925 23.225 26.95 23.3375 26.95C23.6 26.95 23.8625 26.8375 24.05 26.625C24.3 26.325 24.35 25.9125 24.1625 25.5625C20.8125 19.3625 20.7625 11.95 24.0375 5.72495Z" fill="#292D32"/>
<path d="M23.3748 5.91245C22.9873 5.91245 22.6373 5.67495 22.4998 5.29995C22.3248 4.81245 22.5748 4.27495 23.0498 4.09995C24.3998 3.59995 25.7248 2.96245 27.0248 2.19995C27.4748 1.93745 28.0498 2.08745 28.3123 2.52495C28.5748 2.97495 28.4248 3.54995 27.9873 3.81245C26.5998 4.63745 25.1623 5.32495 23.7123 5.86245C23.5873 5.89995 23.4873 5.91245 23.3748 5.91245Z" fill="#292D32"/>
<path d="M6.62504 5.9126C6.51254 5.9126 6.41254 5.9001 6.30003 5.8501C4.85003 5.3251 3.41254 4.6251 2.02504 3.8001C1.57504 3.5376 1.42504 2.9626 1.70004 2.5251C1.96254 2.0751 2.53754 1.9376 2.98754 2.2001C4.27504 2.9626 5.61253 3.6001 6.96254 4.1001C7.43754 4.2751 7.68754 4.8126 7.50004 5.3001C7.36253 5.6751 7.00004 5.9126 6.62504 5.9126Z" fill="#292D32"/>
<path d="M27.5 28.9374C27.3375 28.9374 27.175 28.8999 27.025 28.7999C25.7375 28.0374 24.4 27.3874 23.025 26.8874C22.5375 26.7124 22.2875 26.1749 22.4625 25.6874C22.6375 25.1999 23.175 24.9499 23.6625 25.1249C25.15 25.6624 26.6 26.3624 27.9875 27.1874C28.4375 27.4499 28.575 28.0249 28.3125 28.4749C28.125 28.7749 27.8125 28.9374 27.5 28.9374Z" fill="#292D32"/>
<path d="M2.49985 28.9374C2.18735 28.9374 1.87485 28.7749 1.69985 28.4749C1.43735 28.0249 1.57485 27.4499 2.02485 27.1874C3.41235 26.3624 4.86235 25.6624 6.34985 25.1249C6.83735 24.9499 7.37485 25.1999 7.54985 25.6874C7.72485 26.1749 7.47485 26.7124 6.98735 26.8874C5.61235 27.3874 4.26235 28.0374 2.98735 28.7999C2.82485 28.8999 2.66235 28.9374 2.49985 28.9374Z" fill="#292D32"/>
</svg>
